<svg xmlns="http://www.w3.org/2000/svg" viewBox="0 0 1200 800">
  <defs>
    <linearGradient id="bg" x1="0" y1="0" x2="1" y2="1">
      <stop offset="0" stop-color="#09182d"/>
      <stop offset=".58" stop-color="#10294a"/>
      <stop offset="1" stop-color="#c9a961"/>
    </linearGradient>
    <linearGradient id="glass" x1="0" y1="0" x2="0" y2="1">
      <stop offset="0" stop-color="#f7f2e9" stop-opacity=".34"/>
      <stop offset="1" stop-color="#f7f2e9" stop-opacity=".04"/>
    </linearGradient>
  </defs>
  <rect width="1200" height="800" fill="url(#bg)"/>
  <path d="M0 590h1200v210H0z" fill="#071326" opacity=".72"/>
  <path d="M150 90h900v460H150z" fill="url(#glass)" opacity=".46"/>
  <path d="M210 150h780M210 260h780M210 370h780M330 150v400M510 150v400M690 150v400M870 150v400" stroke="#d9bd80" stroke-opacity=".28" stroke-width="3"/>
  <ellipse cx="600" cy="610" rx="390" ry="88" fill="#0a1a30"/>
  <ellipse cx="600" cy="590" rx="390" ry="88" fill="#17345d"/>
  <path d="M300 584h600" stroke="#f3ead4" stroke-opacity=".35" stroke-width="8"/>
  <circle cx="410" cy="560" r="38" fill="#d9bd80" opacity=".75"/>
  <circle cx="600" cy="542" r="46" fill="#f3ead4" opacity=".5"/>
  <circle cx="790" cy="560" r="38" fill="#d9bd80" opacity=".75"/>
  <text x="90" y="715" fill="#d9bd80" font-family="Georgia, serif" font-size="46" font-style="italic">Private Advisory</text>
</svg>
